<?xml version="1.0" standalone="no"?><!DOCTYPE svg PUBLIC "-//W3C//DTD SVG 1.1//EN" "http://www.w3.org/Graphics/SVG/1.1/DTD/svg11.dtd"><svg class="icon" width="200px" height="200.00px" viewBox="0 0 1024 1024" version="1.1" xmlns="http://www.w3.org/2000/svg"><path d="M818.42176 928.8704a197.87776 197.87776 0 0 1-58.61376 11.07968 197.79584 197.79584 0 0 1-89.55904-17.79712 4146.688 4146.688 0 0 0-150.54848-0.512c-256.47104 3.6864-463.99488 28.63104-463.52384 55.76704 0.47104 27.07456 208.83456 46.08 465.3056 42.43456 256.512-3.6864 464.03584-28.63104 463.5648-55.76704-0.3072-15.07328-65.04448-27.62752-166.62528-35.20512z" fill="#B7CED2" /><path d="M553.92256 740.39296c-4.36224-110.16192 81.44896-203.01824 191.63136-207.40096a200.13056 200.13056 0 0 1 54.96832 5.57056l-1.26976-16.4864-14.80704-161.09568s19.64032-65.35168-278.71232-109.21984c0 0-353.95584 29.65504-384.63488 135.55712l19.68128 452.66944s85.03296 106.04544 333.43488 94.4128c0 0 101.13024-6.92224 192.7168-21.99552a199.55712 199.55712 0 0 1-113.00864-172.01152z" fill="#CCDAA9" /><path d="M560.76288 907.07968c-27.48416 3.2768-56.44288 5.67296-86.56896 6.88128-173.11744 6.88128-315.00288-26.56256-316.88704-74.60864l-4.11648-103.424c58.04032 38.48192 178.23744 61.6448 316.17024 56.15616 10.36288-0.4096 20.56192-1.04448 30.67904-1.76128a257.3312 257.3312 0 0 1-5.28384-34.48832c-8.88832 0.55296-17.75616 1.08544-26.80832 1.4336-173.07648 6.8608-314.96192-26.54208-316.88704-74.6496l-3.6864-92.9792c58.04032 38.5024 178.23744 61.6448 316.17024 56.17664 15.52384-0.6144 30.80192-1.6384 45.75232-2.94912 4.64896-12.5952 10.40384-24.63744 16.81408-36.27008a1091.29728 1091.29728 0 0 1-64 4.38272c-173.056 6.90176-314.92096-26.54208-316.84608-74.62912l-3.7888-96.44032c57.99936 38.15424 178.23744 61.6448 316.12928 56.15616 137.91232-5.48864 255.87712-38.42048 310.6816-81.03936l2.31424 57.97888c11.91936 0.75776 23.59296 2.62144 35.08224 4.95616l-4.79232-121.09824c-7.8848-65.59744-163.88096-112.08704-352.93184-104.57088-189.07136 7.51616-340.56192 66.19136-343.51104 132.23936l18.0224 456.192c2.64192 67.23584 160.84992 115.67104 353.0752 108.07296a944.88576 944.88576 0 0 0 117.248-11.96032 262.28736 262.28736 0 0 1-32.03072-29.75744zM139.32544 386.62144c-1.88416-48.04608 136.92928-92.61056 310.00576-99.47136 173.03552-6.88128 314.90048 26.56256 316.88704 74.60864 1.88416 48.08704-136.94976 92.65152-310.00576 99.51232s-314.9824-26.56256-316.88704-74.6496z" fill="#567019" /><path d="M753.43872 942.44864c-115.75296 0-209.92-94.16704-209.92-209.92s94.16704-209.92 209.92-209.92 209.92 94.16704 209.92 209.92-94.16704 209.92-209.92 209.92z m0-399.36c-104.46848 0-189.44 84.97152-189.44 189.44s84.97152 189.44 189.44 189.44 189.44-84.97152 189.44-189.44-84.97152-189.44-189.44-189.44z" fill="#567019" /><path d="M814.51008 878.36672a10.19904 10.19904 0 0 1-6.22592-18.35008l35.57376-27.27936h-199.49568a10.24 10.24 0 0 1 0-20.48h229.6832a10.24 10.24 0 1 1 6.2464 18.37056l-59.51488 45.64992a10.52672 10.52672 0 0 1-6.26688 2.08896zM698.96192 780.36992l-94.35136-0.04096a10.26048 10.26048 0 0 1-6.63552-18.06336l64.08192-54.272a10.24 10.24 0 0 1 13.23008 15.64672l-42.78272 36.2496 66.43712 0.02048a10.24 10.24 0 0 1 0.02048 20.45952z" fill="#567019" /><path d="M761.61024 768.08192c0 5.5296-7.168 9.99424-15.93344 9.99424-8.86784 0-15.99488-4.48512-15.99488-9.99424v-90.89024c0-5.55008 7.18848-10.01472 15.99488-10.01472 8.8064 0 15.93344 4.48512 15.93344 10.01472v90.89024z" fill="#CCDAA9" /><path d="M745.65632 788.31616c-14.72512 0-26.23488-8.9088-26.23488-20.23424v-90.89024c0-11.3664 11.50976-20.25472 26.23488-20.25472 14.68416 0 26.17344 8.9088 26.17344 20.25472v90.89024c0.02048 11.34592-11.48928 20.23424-26.17344 20.23424z m0-110.8992c-3.56352 0-5.8368 1.18784-6.3488 1.72032l0.57344 88.80128c0.06144-1.2288 2.3552-0.12288 5.75488-0.1024 3.52256 0 5.77536-1.18784 6.28736-1.69984l-0.57344-88.82176c-0.02048 1.2288-2.3552 0.1024-5.69344 0.1024z" fill="#567019" /><path d="M896.9216 768.08192c0 5.5296-7.168 9.99424-15.99488 9.99424-8.8064 0-15.95392-4.48512-15.95392-9.99424v-90.89024c0-5.55008 7.18848-10.01472 15.95392-10.01472 8.84736 0 15.99488 4.48512 15.99488 10.01472v90.89024z" fill="#CCDAA9" /><path d="M880.92672 788.31616c-14.70464 0-26.19392-8.9088-26.19392-20.23424v-90.89024c0-11.3664 11.50976-20.25472 26.19392-20.25472 14.72512 0 26.23488 8.9088 26.23488 20.25472v90.89024c0 11.34592-11.53024 20.23424-26.23488 20.23424z m0-110.8992c-3.54304 0-5.79584 1.18784-6.30784 1.69984l0.57344 88.82176c0.04096-1.20832 2.31424-0.1024 5.71392-0.1024 3.56352 0 5.8368-1.18784 6.3488-1.72032l-0.57344-88.80128c-0.06144 1.18784-2.31424 0.08192-5.75488 0.1024z" fill="#567019" /><path d="M829.2352 762.04032a15.99488 15.99488 0 0 1-31.9488 0v-145.44896c0-8.88832 7.168-16.05632 15.99488-16.05632 8.8064 0 15.95392 7.20896 15.95392 16.05632v145.44896z" fill="#CCDAA9" /><path d="M813.28128 788.31616a26.27584 26.27584 0 0 1-26.23488-26.27584v-145.44896c0-14.49984 11.776-26.29632 26.23488-26.29632 14.4384 0 26.19392 11.79648 26.19392 26.29632v145.44896c0 14.49984-11.75552 26.27584-26.19392 26.27584z m0-177.54112a5.79584 5.79584 0 0 0-5.75488 5.81632v145.44896c0 3.19488 2.58048 5.79584 5.75488 5.79584a5.75488 5.75488 0 0 0 5.71392-5.79584v-145.44896a5.77536 5.77536 0 0 0-5.71392-5.81632z" fill="#567019" /><path d="M469.77024 382.73024L552.96 426.22976V404.48l-74.24-37.10976L552.96 322.56v-21.68832l-83.18976 48.55808v-34.54976h-15.36v40.96h-17.28512v-39.03488h-17.92v39.66976h-31.96928v21.77024h34.52928v39.03488h14.06976v-40.96h20.48v39.66976h13.78304z" fill="#567019" /></svg>